<?xml version="1.0" encoding="UTF-8" standalone="no"?>
<svg
   width="384.02701"
   height="384.02701"
   viewBox="0 0 384.02701 384.02701"
   version="1.1"
   id="svg2"
   sodipodi:docname="monument.svg"
   inkscape:version="1.4.1 (93de688d07, 2025-03-30)"
   xmlns:inkscape="http://www.inkscape.org/namespaces/inkscape"
   xmlns:sodipodi="http://sodipodi.sourceforge.net/DTD/sodipodi-0.dtd"
   xmlns="http://www.w3.org/2000/svg"
   xmlns:svg="http://www.w3.org/2000/svg">
  <defs
     id="defs2" />
  <sodipodi:namedview
     id="namedview2"
     pagecolor="#ffffff"
     bordercolor="#000000"
     borderopacity="0.25"
     inkscape:showpageshadow="2"
     inkscape:pageopacity="0.0"
     inkscape:pagecheckerboard="0"
     inkscape:deskcolor="#d1d1d1"
     inkscape:zoom="1.2128906"
     inkscape:cx="58.125605"
     inkscape:cy="255.17553"
     inkscape:window-width="1440"
     inkscape:window-height="872"
     inkscape:window-x="0"
     inkscape:window-y="0"
     inkscape:window-maximized="1"
     inkscape:current-layer="svg2" />
  <path
     d="m 156.35304,42.735174 c -2.189,4.821 -4.437,9.883 -4.996,11.249 -0.951,2.323 -1.1,2.138 -2.292,-2.831 -1.97,-8.21 -3.507,-5.054 -3.473,7.129 0.029,10.56 1.609,26.571 2.814,28.521 0.377,0.61 1.358,0.852 2.179,0.537 2.249,-0.863 8.906,4.019 12.396,9.092 3.191,4.636996 5.228,12.159996 4.278,15.794996 -0.483,1.846 -0.23,1.991 2.364,1.35 1.598,-0.395 3.271,-1.075 3.718,-1.511 0.447,-0.435 0.867,-4.116 0.932,-8.179 0.135,-8.318996 -1.451,-12.481996 -5.858,-15.368996 -9.15,-5.995 -19.619,-20.007 -19.793,-26.49 -0.083,-3.126 0.217,-3.564 2.632,-3.842 2.178,-0.251 3.131,0.351 4.746,3 l 2.021,3.314 0.021,-8 c 0.011,-4.4 0.681,-11.119 1.489,-14.931 0.808,-3.812 1.318,-7.081 1.135,-7.265 -0.184,-0.183 -2.125,3.611 -4.313,8.431 m 33.729,3.426 c -0.124,8.393 4.428,18.159 12.508,26.839 3.551,3.814 7.009,13.495 8.082,22.624 0.347,2.957 0.785,5.375996 0.973,5.375996 0.189,0 2.202,-0.744 4.474,-1.652996 l 4.131,-1.653 -0.427,-5.151 c -0.639,-7.704 -3.801,-13.107 -14.313,-24.458 -10.498,-11.337 -11.06,-12.166 -13.606,-20.085 -1.72,-5.35 -1.77,-5.4 -1.822,-1.839 m 25.946,61.812996 c -4.071,1.598 -4.675,2.28 -6.335,7.146 -1.882,5.515 -3.55,23.88 -2.169,23.88 0.422,0 2.284,-0.937 4.136,-2.082 l 3.368,-2.081 0.1,-9.169 c 0.12,-11.057 0.793,-13.868 3.621,-15.129 1.186,-0.528 2.366,-1.765 2.624,-2.75 0.55,-2.105 0.483,-2.103 -5.345,0.185 m 110.087,2.433 c -3.16,3.364 -12.179,7.989 -23.74,12.174 -17.657,6.391 -23.442,10.922 -21.882,17.137 0.346,1.376 3.739,6.84 7.541,12.142 8.383,11.689 11.914,18.666 12.667,25.028 0.773,6.521 -0.874,9.643 -12.295,23.312 -5.193,6.215 -11.062,13.716 -13.042,16.668 -3.271,4.878 -3.504,5.677 -2.56,8.753 2.165,7.056 -5.27,10.138 -7.692,3.189 -2.726,-7.819 -0.677,-19.827 5.954,-34.897 2.179,-4.952 3.955,-10.22 3.946,-11.708 -0.018,-2.945 -1.879,-6.379 -9.4,-17.344 -4.12,-6.006 -5.021,-8.155 -5.563,-13.264 l -0.646,-6.097 -0.787,4.658 c -0.965,5.71 -0.383,8.506 3.969,19.072 4.679,11.36 4.672,18.708 -0.037,37.404 l -3.48,13.817 2.088,4.313 c 1.613,3.333 1.937,5.316 1.425,8.729 -0.648,4.326 -0.575,4.479 3.643,7.532 2.367,1.714 4.851,4.097 5.519,5.296 1.63,2.925 1.592,8.68 -0.085,12.807 -1.543,3.796 -1.241,5.419 1.583,8.527 1.076,1.186 2.519,3.661 3.206,5.5 0.687,1.84 2.561,6.045 4.165,9.345 2.707,5.571 2.915,6.823 2.906,17.5 -0.013,13.684 -1.543,17.966 -7.506,21.008 -2.057,1.05 -5.551,3.966 -7.765,6.48 -3.281,3.728 -4.231,5.762 -5.146,11.017 -1.322,7.59 -6.885,24.011 -11.602,34.245 l -3.341,7.25 h 12.282 12.282 l -2.553,-5.159 c -3.967,-8.015 -3.59,-15.963 1.273,-26.841 2.09,-4.675 4.257,-10.3 4.816,-12.5 1.869,-7.36 2.576,-8.5 5.27,-8.5 1.71,0 2.899,0.782 3.63,2.386 1.306,2.866 -0.104,7.975 -5.646,20.46 -3.262,7.349 -3.658,9.088 -3.309,14.555 0.545,8.569 4.833,15.595 9.519,15.597 l 3.194,0.002 -2.143,-4.75 c -1.594,-3.532 -2.248,-7.33 -2.55,-14.81 -0.487,-12.022 0.892,-18.281 7.333,-33.274 2.445,-5.69 4.96,-13.307 5.591,-16.926 2.632,-15.117 -2.155,-34.188 -12.294,-48.979 -4.215,-6.148 -6.015,-11.876 -6.071,-19.31 -0.051,-6.926 1.908,-14.25 5.299,-19.808 1.602,-2.626 2.562,-3.259 4.408,-2.906 1.702,0.326 2.629,-0.14 3.327,-1.67 0.531,-1.168 5.142,-8.848 10.246,-17.067 5.104,-8.22 10.586,-17.736 12.182,-21.147 2.576,-5.505 2.783,-6.642 1.848,-10.117 -0.58,-2.153 -3.797,-7.699 -7.149,-12.325 -7.534,-10.398 -9.915,-14.94 -9.915,-18.919 0,-4.157 3.016,-6.745 12.634,-10.843 12.097,-5.153 16.407,-8.993 17.847,-15.899 0.805,-3.862 -0.3,-4.136 -3.394,-0.843 m -147.045,16.847 c -0.64,4.535 -1.024,11.171 -0.853,14.746 l 0.311,6.5 1.753,-10.5 c 1.938,-11.603 2.214,-17.594 0.85,-18.437 -0.494,-0.305 -1.421,3.156 -2.061,7.691 m -14.542,-3.813 -4,1.232 -0.65,6.913 c -0.358,3.803 -1.133,8.489 -1.723,10.414 -0.591,1.925 -1.198,6.187 -1.35,9.472 l -0.277,5.971 10.947,8.749 c 6.02,4.811 11.126,8.568 11.345,8.349 0.22,-0.219 0.084,-4.185 -0.301,-8.811 -0.665,-7.975 -0.816,-8.391 -2.907,-7.991 -4.411,0.843 -5.085,-1.73 -5.076,-19.396 0.004,-10.384 -0.36,-16.305 -1,-16.238 -0.555,0.058 -2.808,0.659 -5.008,1.336 m -55.799,5.059 c 0.918,1.925 2.261,3.5 2.984,3.5 1.864,0 1.634,-1.325 -0.758,-4.365 -2.946,-3.746 -4.193,-3.261 -2.226,0.865 m 117.838,7.888 c -2.91,2.32 -2.916,2.348 -1.701,7.777 0.85,3.799 3.441,8.828 8.555,16.606 10.405,15.824 12.107,20.813 12.107,35.479 0,6.463 0.395,11.75 0.878,11.75 0.484,0 0.671,-6.171 0.417,-13.75 -0.409,-12.182 -0.776,-14.491 -3.223,-20.25 -6.418,-15.105 -8.57,-21.074 -10.65,-29.544 -1.209,-4.926 -2.483,-9.28 -2.831,-9.677 -0.348,-0.396 -1.946,0.328 -3.552,1.609 m -110.539,2.591 c -1.113,0.704 -1.518,2.958 -1.569,8.735 -0.057,6.49 -0.598,8.979 -3.25,14.954 -3.665,8.258 -4.033,13.664 -1.536,22.564 l 1.645,5.864 2.605,-2.495 c 2.91,-2.787 8.975,-5.601 12.073,-5.601 1.945,0 2.032,-0.594 2.032,-13.851 0,-14.917 -0.592,-17.769 -5.377,-25.899 -3.165,-5.377 -4.011,-5.922 -6.623,-4.271 m 96.25,7.136 c -1.788,1.145 -3.25,2.505 -3.25,3.023 0,1.738 4.238,9.307 8.797,15.711 5.633,7.913 12.131,23.236 12.172,28.705 0.025,3.267 0.684,4.686 3.397,7.316 3.361,3.258 3.367,3.259 3.986,0.946 2.724,-10.168 -1.527,-23.368 -12.849,-39.899 -2.98,-4.351 -5.825,-9.893 -6.569,-12.796 -0.722,-2.817 -1.565,-5.113 -1.873,-5.104 -0.309,0.009 -2.023,0.953 -3.811,2.098 m -89.798,46.291 c -1.676,0.73 -3.869,2.582 -4.874,4.115 -1.784,2.723 -1.776,2.891 0.346,7.259 2.132,4.388 2.246,4.461 6.206,3.929 2.22,-0.297 4.17,-0.691 4.335,-0.875 0.166,-0.184 0.069,-3.822 -0.214,-8.084 -0.548,-8.27 -0.785,-8.528 -5.799,-6.344 m 2.038,25.344 c 0.387,0.962 1.623,4.113 2.746,7 1.939,4.985 3.764,6.863 3.764,3.872 0,-0.757 0.65,-1.916 1.444,-2.575 2.761,-2.292 -2.45,-9.973 -6.801,-10.025 -1.373,-0.016 -1.674,0.434 -1.153,1.728 m 12.023,5.229 c -0.392,0.635 0.093,1.744 1.078,2.464 1.717,1.255 1.699,1.788 -0.424,12.684 -4.389,22.518 -4.792,45.76 -1.128,65.078 0.528,2.787 0.961,5.272 0.961,5.52 0,0.249 1.413,-0.736 3.14,-2.189 4.093,-3.444 8.228,-3.174 8.662,0.566 0.256,2.203 -1.857,4.643 -13.768,15.901 -21.121,19.963 -26.415,29.603 -22.712,41.35 0.913,2.896 3.239,7.111 5.169,9.366 1.93,2.254 3.509,4.54 3.509,5.08 0,0.858 43.769,2.362 44.889,1.542 0.213,-0.157 -0.821,-0.745 -2.3,-1.307 -7.341,-2.791 -17.593,-8.487 -21.873,-12.152 -9.089,-7.782 -11.094,-16.718 -6.031,-26.878 3.589,-7.202 28.012,-31.721 32.06,-32.187 2.466,-0.284 2.787,-0.762 3.062,-4.567 0.344,-4.753 0.231,-4.838 -3.731,-2.789 l -2.825,1.461 -0.7,-7.104 c -0.385,-3.907 -1.567,-8.72 -2.626,-10.696 -1.201,-2.242 -1.925,-5.571 -1.925,-8.857 0,-3.805 -0.382,-5.265 -1.378,-5.265 -0.757,0 -1.948,-0.688 -2.647,-1.53 -1.915,-2.307 0.186,-6.052 3.802,-6.775 l 2.95,-0.59 0.721,-15.511 c 0.397,-8.531 0.432,-15.98 0.078,-16.553 -0.354,-0.572 -1.691,-1.041 -2.972,-1.041 -1.891,0 -12.29,-2.829 -20.691,-5.629 -0.901,-0.3 -1.958,-0.026 -2.35,0.608 m 5.706,14.771 c -1.372,3.339 -0.583,26.543 1.196,35.226 2.017,9.841 6.706,24.555 9.887,31.024 1.69,3.437 2.844,4.573 4.888,4.81 4.769,0.552 5.032,-2.273 1.093,-11.776 -6.263,-15.115 -8.472,-25.655 -9.019,-43.034 -0.269,-8.525 -0.943,-16.062 -1.499,-16.75 -1.494,-1.849 -5.714,-1.526 -6.546,0.5 m 14.531,90.239 c -5.912,5.796 -10.75,11.094 -10.75,11.774 0,4.396 11.25,-2.657 19.338,-12.125 4.007,-4.691 4.33,-5.443 3.302,-7.693 -1.13,-2.472 -1.236,-2.4 -11.89,8.044 m 41.352,40.868 c -2.807,3.942 -7.129,5.575 -12.371,4.674 -6.749,-1.16 -10.011,-1.118 -10.441,0.134 -0.22,0.641 0.524,1.458 1.653,1.817 1.129,0.358 2.327,1.746 2.663,3.085 l 0.611,2.433 h 19.391 c 10.666,0 19.392,-0.338 19.392,-0.752 0,-0.413 -1.94,-1.781 -4.312,-3.039 -2.372,-1.258 -6.612,-4.3 -9.424,-6.759 l -5.112,-4.472 -2.05,2.879"
     stroke="none"
     fill="#828282"
     fill-rule="evenodd"
     id="path1"
     style="fill:#cccccc" />
  <path
     d="m 243.99204,2.594174 c -1.795,4.722 -3.956,20.773 -3.959,29.406 -0.005,16.048 4.381,33.914 10.59,43.141 1.873,2.783 3.405,5.412 3.405,5.843 0,1.148 -7.164,7.244 -10.835,9.219 -3.491,1.88 -4.296,5.613 -1.678,7.786 1.969,1.634 5.032,0.765 10.826,-3.073 10.928,-7.238 12.904,-14.435 6.495,-23.657 -4.161,-5.989 -6.184,-11.492 -8.312,-22.618 -1.731,-9.044 -2,-17.717 -0.43,-13.796 1.774,4.426 8.919,13.719 13.48,17.532 2.511,2.098 5.556,5.909 6.768,8.469 1.709,3.609 2.804,4.724 4.878,4.964 1.903,0.221 3.001,-0.303 3.81,-1.815 0.88,-1.642 1.445,-1.869 2.492,-1 1.473,1.223 5.722,0.746 14.232,-1.598 5.784,-1.593 8.011,-4.151 6.337,-7.279 -1.471,-2.749 -3.551,-3.209 -7.795,-1.722 -2.073,0.726 -5.898,1.635 -8.501,2.021 -2.728,0.403 -5.116,1.384 -5.636,2.313 -0.748,1.337 -1.195,1.029 -2.619,-1.809 -0.944,-1.881 -4.763,-6.358 -8.487,-9.948 -9.851,-9.497 -15.966,-23.115 -16.01,-35.658 -0.024,-6.68 -1.442,-9.315 -5.015,-9.315 -2.362,0 -3.272,0.585 -4.036,2.594 m -54.452,15.387 c -1.478,2.391 -0.507,19.587 1.518,26.891 2.84,10.24 3.663,11.563 14.435,23.194 10.538,11.379 13.691,16.77 14.332,24.504 l 0.43,5.178 -4.364,1.521 c -3.452,1.202996 -21.598,6.663996 -30.983,9.323996 -1.367,0.388 -1.692,-0.753 -2.084,-7.317 -0.597,-9.987996 -2.969,-14.655996 -10.235,-20.141996 -5.854,-4.42 -11.198,-10.688 -15.826,-18.56 -2.359,-4.015 -3.165,-4.658 -5.5,-4.389 -2.425,0.279 -2.724,0.714 -2.641,3.843 0.174,6.483 10.643,20.495 19.793,26.49 4.407,2.887 5.993,7.05 5.858,15.368996 -0.065,4.063 -0.485,7.744 -0.932,8.179 -0.447,0.436 -2.12,1.116 -3.718,1.511 -2.594,0.641 -2.847,0.496 -2.364,-1.35 0.297,-1.138 0.152,-4.145 -0.322,-6.683 -2.205,-11.802996 -16.893,-23.470996 -19.441,-15.443996 -0.487,1.535 0.632,3.215 4.824,7.243 5.893,5.661996 7.308,9.157996 6.243,15.428996 l -0.633,3.728 -9.586,2.781 c -5.273,1.529 -9.722,2.646 -9.887,2.481 -0.165,-0.165 -0.959,-4.341 -1.765,-9.281 -2.585,-15.854996 -6.204,-22.745996 -10.985,-20.910996 -2.658,1.02 -2.865,3.941 -0.729,10.280996 1.116,3.314 2.722,10.665 3.568,16.337 2.723,18.244 7.231,31.04 13.417,38.086 1.793,2.042 7.154,6.722 11.913,10.4 12.286,9.497 29.761,24.164 35.795,30.044 6.177,6.021 7.908,8.824 6.126,9.924 -2.188,1.353 -18.199,1.622 -26.979,0.453 -9.192,-1.223 -11.403,-0.889 -12.275,1.857 -0.878,2.767 0.464,5.016 3.345,5.607 1.452,0.298 5.34,1.842 8.64,3.432 5.562,2.678 5.769,2.893 2.838,2.949 -9.151,0.174 -27.952,-5.131 -36.563,-10.317 l -5.474,-3.296 -19.401,1.22 c -10.669996,0.671 -19.496996,1.273 -19.614996,1.337 -1.422,0.77 -2.19,4.426 -1.285,6.116 0.919,1.717 2.092,2 8.285,1.997 3.967996,-0.002 12.251996,-0.476 18.407996,-1.052 11.074,-1.038 11.233,-1.022 15,1.442 6.448,4.219 31.833,11.613 39.868,11.613 1.766,0 2.42,0.867 3.305,4.38 2.811,11.166 8.846,19.902 16.414,23.763 3.2,1.632 5.462,1.94 12.346,1.678 l 8.428,-0.321 -0.597,3 c -0.737,3.698 -7.698,18.625 -10.562,22.648 l -2.107,2.958 -2.926,-3.979 c -2.772,-3.769 -9.736,-8.127 -12.987,-8.127 -3.589,0 -5.148,-2.517 -5.008,-8.085 0.075,-2.978 -0.356,-6.621 -0.958,-8.095 -1.052,-2.577 -6.153,-5.82 -9.155,-5.82 -2.227,0 -5.008,3.623 -4.358,5.678 0.468,1.48 -0.032,1.865 -2.658,2.051 -5.522,0.392 -7.577,5.737 -2.982,7.758 1.882,0.828 2.244,1.771 2.244,5.849 0,6.347 2.289,10.97 7.65,15.451 l 4.35,3.637 v 7.115 7.115 l -2.846,-0.418 c -2.525,-0.371 -4.368,1.096 -16.315,12.981 -15.088,15.01 -18.839,20.788 -18.839,29.019 0,11.69 7.11,18.235 32.213,29.654 8.862,4.031 10.918,4.469 13.184,2.81 2.416,-1.768 1.507,-6.278 -1.454,-7.218 -1.129,-0.359 -1.873,-1.176 -1.653,-1.817 0.43,-1.252 3.692,-1.294 10.441,-0.134 5.521,0.949 9.208,-0.627 13.26,-5.669 3.16,-3.933 3.263,-3.974 8.354,-3.344 5.769,0.713 9.487,-0.348 12.482,-3.563 3.339,-3.584 4.131,-1.673 3.929,9.474 -0.195,10.737 0.671,13.588 4.116,13.556 3.945,-0.037 4.41,-1.435 4.803,-14.456 l 0.382,-12.673 -2.896,-2.705 -2.896,-2.706 4.579,0.028 c 3.862,0.023 4.805,0.43 6.021,2.595 1.278,2.277 1.202,3.898 -0.669,14.28 -1.161,6.442 -1.855,12.377 -1.543,13.191 0.832,2.167 5.237,3 6.927,1.31 1.384,-1.384 5.42,-20.666 5.42,-25.893 0,-1.462 -1.127,-4.777 -2.504,-7.367 -1.538,-2.893 -2.309,-5.651 -2,-7.149 0.277,-1.342 0.722,-3.502 0.988,-4.8 0.373,-1.817 1.844,-2.856 6.395,-4.516 7.532,-2.746 9.54,-5.565 9.659,-13.562 0.052,-3.478 0.561,-6.095 1.227,-6.317 3.396,-1.132 7.969,-5.249 9.655,-8.691 1.83,-3.738 1.842,-4.138 0.25,-8.621 -2.199,-6.191 -2.216,-6.091 1.83,-10.933 4.232,-5.066 4.626,-9.775 1.246,-14.92 -4.703,-7.159 -4.718,-7.211 -3.181,-10.889 1.735,-4.154 1.802,-9.905 0.15,-12.869 -0.668,-1.199 -3.015,-3.484 -5.215,-5.078 -3.912,-2.836 -4,-3.033 -4,-8.997 0,-7.141 -2.008,-10.604 -7.974,-13.756 -2.092,-1.106 -4.215,-3.121 -4.718,-4.48 -0.502,-1.358 -1.636,-3.268 -2.518,-4.243 -1.27,-1.403 -1.636,-4.331 -1.752,-14.021 -0.179,-14.946 -1.532,-18.835 -12.186,-35.038 -4.989,-7.588 -7.671,-12.773 -8.483,-16.404 l -1.188,-5.309 5.909,-5.453 5.91,-5.453 7.381,-0.045 c 8.598,-0.052 27.051,-2.78 28.869,-4.267 1.709,-1.398 1.574,-5.264 -0.236,-6.766 -1.184,-0.983 -3.806,-0.883 -12.904,0.493 -6.28,0.949 -12.024,1.484 -12.764,1.189 -0.807,-0.321 -0.518,-0.568 0.722,-0.615 1.138,-0.043 4.443,-0.784 7.345,-1.646 9.205,-2.733 17.397,-12.277 23.501,-27.378996 3.507,-8.678 5.52,-10.535 14.745,-13.607 14.885,-4.957 24.197,-13.425 26.829,-24.396 1.404,-5.852 0.202,-9.051 -3.401,-9.051 -2.974,0 -4.228,1.539 -5.113,6.274 -1.52,8.133 -9.317,15.053 -21.039,18.673 -12.466,3.851 -14.947,6.085 -19.963,17.978 -4.268,10.121 -9.878,18.742996 -13.713,21.074996 -1.585,0.964 -5.666,2.326 -9.07,3.026 -3.404,0.7 -6.751,1.711 -7.439,2.246 -1.829,1.424 -1.525,5.468 0.5,6.648 1.364,0.794 0.676,1.026 -3.116,1.05 -4.431,0.027 -5.212,0.409 -8.75,4.28 l -3.884,4.249 v -7.549 c 0,-7.717 -0.915,-9.95 -4.078,-9.95 -3.319,0 -4.339,2.974 -4.887,14.246 l -0.535,11.024 -5.363,3.025 c -4.807,2.712 -5.694,2.905 -8.571,1.865 -1.764,-0.638 -4.526,-1.158 -6.137,-1.156 -7.284,0.009 -13.016,7.751 -10.405,14.055 0.67,1.617 1.692,2.941 2.272,2.941 0.579,0 0.074,1.042 -1.122,2.314 -2.758,2.937 -2.85,8.01 -0.192,10.668 1.976,1.976 1.975,1.992 -0.302,5.347 l -2.283,3.365 -8.657,-6.597 c -16.015,-12.204 -24.435,-19.572 -27.104,-23.715 -2.063,-3.203 -6.636,-14.233 -6.636,-16.006 0,-0.171 3.938,-1.508 8.75,-2.971 4.813,-1.463 11.412,-3.502 14.665,-4.532 3.253,-1.03 6.182,-1.873 6.508,-1.873 0.325,0 0.589,7.408 0.585,16.462 -0.007,14.031 0.238,16.707 1.657,18.129 1.153,1.154 2.482,1.463 4.315,1.003 l 2.649,-0.664 -0.69,-10.306 c -0.436,-6.498 -0.244,-13.456 0.519,-18.829 l 1.21,-8.522 11.166,-3.279 c 13.898,-4.081 32.917,-10.555 36.597,-12.458 3.418,-1.768 9.069,-8.069996 9.069,-10.113996 0,-0.829 2.025,-3.673 4.5,-6.319 2.475,-2.646 4.5,-5.686 4.5,-6.757 0,-2.435 -1.846,-4.346 -4.197,-4.346 -2.635,0 -9.315,6.436 -11.717,11.29 -1.842,3.72 -2.085,3.906 -2.085,1.594 -0.002,-5.32 -6.658,-16.151 -16.369,-26.638 -11.178,-12.07 -12.343,-14.782 -14.005,-32.62 l -1.131,-12.126 -3.154,-0.306 c -1.735,-0.169 -3.459,0.185 -3.83,0.787 m -77.868,113.825996 c -17.857996,9.906 -26.611996,24.352 -23.597996,38.943 1.42,6.873 4.809,13.876 9.056,18.713 3.218996,3.666 5.634996,4.4 7.697996,2.337 2.041,-2.041 1.345,-5.103 -2.339,-10.285 -8.697996,-12.234 -7.916996,-24.145 2.204,-33.596 5.099,-4.761 12.407,-9.919 14.053,-9.919 0.729,0 1.837,-1.123 2.462,-2.496 0.94,-2.062 0.822,-2.844 -0.676,-4.5 -2.296,-2.536 -2.946,-2.477 -8.86,0.803 m 155.259,-1.812 c -0.879,0.513 -2.838,3.698 -4.354,7.076 -2.362,5.263 -2.705,7.164 -2.391,13.286 0.341,6.67 0.696,7.624 5.354,14.407 7.587,11.049 9.454,14.487 9.472,17.441 0.009,1.488 -1.767,6.756 -3.946,11.708 -6.631,15.07 -8.68,27.078 -5.954,34.897 1.411,4.049 4.708,5.165 6.977,2.363 1.411,-1.743 1.51,-2.738 0.609,-6.114 -1.499,-5.615 0.211,-13.08 6.45,-28.154 4.233,-10.227 4.973,-12.919 4.452,-16.178 -0.762,-4.77 -3.629,-10.536 -8.554,-17.204 -7.809,-10.573 -8.418,-14.309 -3.973,-24.358 2.463,-5.567 2.468,-7.82 0.021,-9.13 -2.288,-1.224 -2.14,-1.223 -4.163,-0.04 m -55.511,16.759 -4.108,2.746 2.276,8.5 c 3.872,14.463 5.588,17.535 11.458,20.509 5.861,2.97 8.922,8.111 8.96,15.045 0.018,3.274 0.67,4.681 3.388,7.316 3.361,3.258 3.367,3.259 3.986,0.946 2.724,-10.168 -1.527,-23.368 -12.849,-39.899 -2.98,-4.351 -5.825,-9.893 -6.569,-12.796 -0.722,-2.817 -1.565,-5.119 -1.873,-5.117 -0.309,0.003 -2.41,1.24 -4.669,2.75 m -18.392,1.717 c 0,0.335 0.958,1.906 2.129,3.489 2.302,3.115 2.022,7.089 -0.715,10.128 -1.251,1.388 -1.178,1.815 0.578,3.405 2.355,2.131 2.664,7.227 0.61,10.037 -1.223,1.672 -1.16,2.217 0.5,4.326 2.019,2.567 2.457,6.712 0.96,9.078 -0.653,1.031 0.181,2.671 2.965,5.834 7.48,8.498 7.44,15.474 -0.11,18.952 -2.126,0.979 -3.877,2.015 -3.891,2.303 -0.014,0.287 1.597,1.396 3.58,2.464 l 3.606,1.942 1.977,-2.714 c 2.495,-3.425 7.192,-3.739 8.875,-0.595 0.919,1.717 0.771,2.62 -0.782,4.75 -2.741,3.76 -3.333,5.818 -2.399,8.341 l 0.818,2.214 2.582,-2.785 c 3.543,-3.823 8.068,-3.439 8.544,0.724 0.599,5.235 -8.172,12.036 -17.1,13.26 -3.705,0.508 -10.727,4.999 -10.727,6.862 0,0.945 13.834,0.528 16.536,-0.5 3.08,-1.171 6.382,-4.784 6.431,-7.036 0.081,-3.787 4.666,-5.174 7.554,-2.286 2.258,2.258 1.258,6.783 -2.543,11.513 -1.755,2.184 -2.978,4.887 -2.978,6.583 0,6.625 -5.932,20.952 -13.728,33.157 -3.148,4.927 -3.404,5.877 -2.835,10.5 0.487,3.959 0.196,5.921 -1.318,8.873 l -1.944,3.789 2.163,-0.673 c 5.871,-1.828 6.419,-2.299 7.069,-6.084 1.115,-6.497 3.677,-11.112 7.616,-13.718 3.755,-2.486 3.76,-2.499 4.121,-10.447 0.331,-7.271 0.651,-8.319 3.712,-12.128 2.338,-2.908 3.184,-4.828 2.801,-6.349 -0.303,-1.199 -1.075,-4.211 -1.718,-6.693 -1.053,-4.07 -0.923,-5.093 1.326,-10.425 l 2.493,-5.912 -2.37,-4.456 c -1.798,-3.383 -2.225,-5.364 -1.768,-8.217 0.47,-2.94 0.119,-4.411 -1.609,-6.748 -1.818,-2.46 -2.009,-3.365 -1.075,-5.109 1.62,-3.027 5.196,-2.635 8.627,0.946 2.52,2.63 2.954,3.893 3.054,8.891 0.073,3.603 0.74,6.715 1.75,8.157 2.281,3.256 2.035,10.006 -0.559,15.345 -2.111,4.345 -2.13,4.643 -0.5,8.06 3.036,6.368 2.158,11.66 -2.957,17.808 -1.959,2.355 -2.351,3.957 -2.351,9.602 0,7.617 -2.397,12.524 -7.26,14.862 -2.58,1.241 -3.152,2.503 -5.118,11.297 -0.926,4.143 -4.429,7.783 -8.559,8.895 -4.434,1.194 -5.364,2.154 -6.999,7.234 -1.779,5.523 -6.452,9.051 -11.366,8.583 -3.623,-0.346 -4.129,-0.077 -6.278,3.326 -1.285,2.036 -3.356,4.416 -4.601,5.288 -2.599,1.821 -8.028,2.08 -10.94,0.521 -1.646,-0.881 -2.34,-0.619 -4.022,1.52 -2.336,2.97 -6.856,5.545 -9.731,5.545 -1.085,0 -3.254,-1.078 -4.82,-2.396 l -2.847,-2.396 -2.823,2.429 c -2.717,2.337 -2.762,2.522 -1.194,4.915 2.204,3.363 8.505,7.806 16.288,11.483 l 6.441,3.043 3.802,-3.435 c 4.786,-4.323 8.664,-5.239 13.546,-3.2 5.36,2.24 6.167,2.015 9.027,-2.516 1.414,-2.24 3.946,-4.651 5.626,-5.357 l 3.054,-1.284 -4.863,-0.557 c -3.432,-0.393 -5.328,-0.14 -6.442,0.857 -2.351,2.106 -4.675,1.719 -6.513,-1.086 -1.521,-2.322 -1.517,-2.684 0.055,-5.084 2.508,-3.827 7.547,-5.657 11.646,-4.228 2.867,0.999 3.412,0.907 4.335,-0.734 0.581,-1.032 2.259,-3.131 3.729,-4.665 3.075,-3.208 8.661,-3.812 11.256,-1.218 3.063,3.064 1.273,7.429 -3.047,7.429 -1.456,0 -2.961,1.201 -4.378,3.494 -1.188,1.921 -2.852,3.881 -3.699,4.355 -1.09,0.61 -0.033,1.062 3.61,1.545 2.833,0.376 5.547,0.439 6.031,0.139 0.485,-0.299 1.866,-2.579 3.07,-5.066 2.502,-5.169 6.117,-7.465 12.328,-7.831 5.635,-0.332 6.36,-0.923 7.195,-5.867 0.838,-4.959 5.627,-10.329 10.052,-11.27 5.356,-1.138 5.909,-1.854 5.915,-7.664 0.008,-5.947 1.743,-9.527 6.074,-12.527 6.318,-4.376 6.576,-4.879 4.79,-9.342 -2.122,-5.302 -1.267,-10.266 2.594,-15.07 1.67,-2.078 3.036,-4.259 3.036,-4.846 0,-0.587 -1.35,-2.931 -3,-5.209 -3.433,-4.739 -3.953,-10.098 -1.448,-14.941 1.797,-3.477 1.159,-6.539 -1.542,-7.397 -1.038,-0.329 -3.265,-2.168 -4.948,-4.086 -2.739,-3.118 -3.062,-4.168 -3.062,-9.933 v -6.445 l -4.75,-2.27 c -3.672,-1.754 -5.201,-3.239 -6.735,-6.544 -1.571,-3.383 -2.723,-4.473 -5.52,-5.226 -1.943,-0.524 -5.843,-3.1 -8.665,-5.725 -5.271,-4.904 -7.313,-9.352 -7.324,-15.956 -0.006,-3.275 -1.743,-4.999 -8.419,-8.354 -1.602,-0.805 -3.746,-2.814 -4.763,-4.464 -1.652,-2.679 -6.987,-18.187 -9.461,-27.5 -0.661,-2.488 -1.571,-3.592 -3.146,-3.82 -1.22,-0.175 -2.217,-0.045 -2.217,0.291 m -72.908,36.064 c -1.874,0.825 -5.304,3.25 -7.623,5.387 -3.49,3.217 -5.57,4.181 -12.092,5.606 -10.220996,2.234 -28.939996,8.362 -38.097996,12.473 -8.099,3.635 -9.736,5.986 -6.453,9.269 l 2.035,2.036 13.32,-5.285 c 7.325,-2.906 19.169,-6.749 26.319,-8.539 15.782996,-3.951 17.403996,-4.668 20.191996,-8.928 1.448,-2.213 3.629,-3.828 6.428,-4.761 5.022,-1.674 6.88,-3.979 5.274,-6.543 -1.439,-2.298 -5.075,-2.578 -9.302,-0.715 m 83.563,0.709 c -2.445,1.813 -1.821,5.964 1.088,7.24 1.49,0.654 2.06,1.56 1.699,2.699 -0.323,1.018 0.39,2.642 1.757,3.997 1.265,1.256 2.762,3.191 3.326,4.301 1.209,2.382 4.983,3.173 7.03,1.473 1.993,-1.654 1.826,-8.701 -0.307,-12.883 -3.122,-6.123 -10.737,-9.686 -14.593,-6.827 m -42.905,9.836 c -2.138,1.246 -2.29,5.227 -0.263,6.909 0.853,0.708 2.559,0.965 4,0.604 1.973,-0.495 2.513,-1.265 2.513,-3.577 0,-1.889 -0.694,-3.317 -1.934,-3.981 -2.302,-1.232 -2.12,-1.234 -4.316,0.045 m 17.252,24.615 -2.498,2.469 3.498,-0.332 c 2.665,-0.253 3.498,-0.788 3.498,-2.249 0,-2.762 -1.631,-2.722 -4.498,0.112 m 105.986,2.555 c -3.328,5.455 -5.285,12.82 -5.234,19.701 0.056,7.434 1.856,13.162 6.071,19.31 10.139,14.791 14.926,33.862 12.294,48.979 -0.631,3.619 -3.143,11.233 -5.584,16.92 -5.869,13.675 -7.535,20.499 -7.535,30.869 0,8.596 1.433,15.17 4.791,21.971 1.378,2.791 2.312,3.5 4.609,3.5 4.729,0 5.35,-2.438 2.334,-9.157 -5.503,-12.262 -4.459,-24.857 3.6,-43.464 6.168,-14.237 6.997,-17.782 6.989,-29.879 -0.01,-15.218 -3.208,-26.017 -12.082,-40.795 -2.41,-4.013 -5.024,-8.836 -5.811,-10.718 -2.127,-5.092 -1.722,-12.163 1.089,-18.987 2.782,-6.752 3.008,-8.573 1.281,-10.3 -2.102,-2.102 -4.769,-1.299 -6.812,2.05 m -151.207,3.5 c -1.935,2.216 -3.237,6.439 -5.474,17.75 -2.672,13.515 -2.449,48.231 0.399,61.999 l 2.069,9.998 -9.774,10.147 c -13.107,13.609 -16.501,20.259 -16.501,32.335 0,9.636 1.804,14.511 8.083,21.847 3.857,4.506 7.663,5.504 9.247,2.424 1.19,-2.315 0.526,-3.968 -3.494,-8.69 -1.844,-2.168 -4.101,-6.311 -5.014,-9.207 -3.703,-11.747 1.591,-21.387 22.712,-41.35 11.911,-11.258 14.024,-13.698 13.768,-15.901 -0.434,-3.74 -4.569,-4.01 -8.662,-0.566 -1.727,1.453 -3.14,2.438 -3.14,2.189 0,-0.248 -0.433,-2.733 -0.961,-5.52 -3.664,-19.318 -3.261,-42.56 1.128,-65.078 2.165,-11.11 2.172,-11.406 0.333,-12.75 -2.423,-1.772 -2.876,-1.737 -4.719,0.373 m 58.219,0.462 c 0,0.667 1.842,3.089 4.093,5.382 2.816,2.871 4.687,4.015 6,3.672 2.207,-0.578 2.253,-0.75 0.889,-3.3 -0.919,-1.717 -8.695,-6.966 -10.32,-6.966 -0.364,0 -0.662,0.545 -0.662,1.212 m -7.53,9.538 c 0.377,1.512 1.625,4.273 2.773,6.135 1.95,3.163 2.174,3.265 3.422,1.559 1.785,-2.441 1.784,-2.443 -1.738,-6.716 -3.673,-4.456 -5.421,-4.84 -4.457,-0.978 m -41.251,2 c -1.372,3.339 -0.583,26.543 1.196,35.226 2.017,9.841 6.706,24.555 9.887,31.024 1.69,3.437 2.844,4.573 4.888,4.81 4.769,0.552 5.032,-2.273 1.093,-11.776 -6.263,-15.115 -8.472,-25.655 -9.019,-43.034 -0.269,-8.525 -0.943,-16.062 -1.499,-16.75 -1.494,-1.849 -5.714,-1.526 -6.546,0.5 m 107.448,11.917 c -1.041,1.041 -0.784,5.173 0.445,7.141 0.871,1.395 0.654,2.636 -1,5.722 -2.47,4.609 -2.662,8.218 -0.687,12.944 1.364,3.265 1.29,3.614 -1.75,8.205 -2.54,3.835 -3.197,5.898 -3.283,10.308 -0.151,7.68 -0.114,7.565 -2.839,8.807 -3.192,1.454 -5.381,4.897 -6.858,10.788 -0.993,3.957 -1.703,4.926 -4.195,5.721 -4.195,1.339 -6.5,3.6 -6.5,6.373 0,2.838 4.168,5.241 6.22,3.586 0.704,-0.567 2.73,-1.341 4.503,-1.72 4.304,-0.92 7.878,-5.393 8.702,-10.89 0.535,-3.566 1.404,-5.047 4.23,-7.203 4.588,-3.499 6.711,-8.52 5.898,-13.945 -0.54,-3.601 -0.228,-4.638 2.387,-7.929 3.886,-4.889 4.675,-9.167 2.606,-14.119 -1.535,-3.674 -1.509,-4.114 0.513,-8.816 2.281,-5.301 2.106,-9.213 -0.597,-13.338 -1.456,-2.222 -6.211,-3.22 -7.795,-1.635 m -84.35,14.153 c 0.825,0.924 1.705,2.805 1.956,4.18 0.344,1.892 0.488,1.616 0.591,-1.133 0.109,-2.908 -0.282,-3.743 -1.956,-4.181 -1.897,-0.496 -1.952,-0.39 -0.591,1.134 m 2.141,11.179 c 0.431,4.629 2.495,7.238 10.022,12.663 l 2.979,2.148 -0.302,10.369 c -0.3,10.249 -0.004,11.859 3.964,21.592 0.987,2.422 1.049,3.726 0.239,5.024 -0.985,1.578 -0.639,1.744 3.474,1.667 4.068,-0.077 4.706,-0.408 5.822,-3.024 2.02,-4.734 1.76,-5.421 -1.576,-4.162 -2.247,0.848 -3.284,0.8 -4.5,-0.209 -2.687,-2.23 -1.77,-5.149 3.019,-9.608 4.192,-3.904 4.539,-4.578 3.923,-7.621 -1.705,-8.426 -9.049,-18.804 -13.349,-18.86 -3.119,-0.041 -10.005,-3.796 -11.266,-6.143 -0.69,-1.284 -1.617,-3.685 -2.061,-5.335 -0.648,-2.41 -0.724,-2.115 -0.388,1.499 m -8.708,51.02 c -7.012,6.941 -12.75,13.15 -12.75,13.8 0,2.303 4.562,1.113 9,-2.348 2.475,-1.93 7.001,-6.263 10.057,-9.628 4.99,-5.496 5.775,-6.003 7.691,-4.978 2.109,1.129 2.118,1.095 0.772,-3.112 -0.749,-2.339 -1.51,-4.725 -1.691,-5.302 -0.181,-0.578 -6.067,4.628 -13.079,11.568 m 16.407,2.292 c -0.609,1.204 -2.292,3.639 -3.74,5.412 l -2.631,3.222 2.76,1.258 c 2.427,1.106 2.893,1.03 3.857,-0.627 0.604,-1.037 2.381,-3.39 3.951,-5.23 2.072,-2.431 2.434,-3.346 1.321,-3.346 -0.843,0 -2.18,-0.647 -2.971,-1.439 -1.252,-1.252 -1.583,-1.154 -2.547,0.75 m 102.944,0.939 c -0.47,1.238 -1.312,4.05 -1.871,6.25 -0.559,2.2 -2.726,7.825 -4.816,12.5 -3.166,7.082 -3.802,9.617 -3.813,15.199 -0.011,5.742 0.494,7.672 3.532,13.5 3.096,5.94 3.9,6.801 6.347,6.801 3.794,0 5.49,-2.737 3.561,-5.747 -6.401,-9.986 -6.728,-16.435 -1.431,-28.253 5.39,-12.027 6.824,-17.252 5.52,-20.114 -1.456,-3.197 -5.832,-3.281 -7.029,-0.136"
     stroke="none"
     fill="#343434"
     fill-rule="evenodd"
     id="path2" />
</svg>
